<?xml version="1.0" encoding="UTF-8"?>
<svg id="Layer_1" xmlns="http://www.w3.org/2000/svg" viewBox="0 0 512 512">
    <defs>
        <style>
            .cls-1{fill:#5383ec;}.cls-1,.cls-2,.cls-3,.cls-4{stroke-width:0px;}.cls-2{fill:#d85140;}.cls-3{fill:#58a65c;}.cls-4{fill:#f1bf42;}
        </style>
    </defs>
    <path class="cls-4"
          d="M245.09,314.88v-81.3h186.59v166.6c-35.72,24.35-67.31,40.92-94.76,49.71-27.46,8.8-60.02,13.19-97.69,13.19-46.38,0-84.19-7.91-113.42-23.72-29.23-15.81-51.89-39.36-67.97-70.64-16.08-31.27-24.12-67.17-24.12-107.69,0-42.65,8.8-79.74,26.39-111.29,17.59-31.54,43.36-55.49,77.3-71.84,26.48-12.62,62.11-18.93,106.89-18.93s75.48,3.91,96.89,11.73c21.41,7.82,39.18,19.95,53.31,36.39,14.13,16.44,24.75,37.28,31.85,62.51l-116.49,20.79c-4.8-14.75-12.93-26.03-24.39-33.85-11.46-7.82-26.08-11.73-43.85-11.73-26.48,0-47.58,9.2-63.31,27.59s-23.59,47.49-23.59,87.3c0,42.29,7.95,72.5,23.86,90.63,15.9,18.13,38.07,27.19,66.51,27.19,13.5,0,26.39-1.95,38.65-5.86,12.26-3.91,26.3-10.57,42.12-19.99v-36.79h-80.77Z"/>
    <path class="cls-2"
          d="M51.9,92.93H3.32v-37.41c0-13.77,2.87-24.64,8.6-32.61,5.73-7.97,15.56-15,29.48-21.11l10.5,19.88c-8.56,4.02-14.48,8.02-17.76,12.01-3.28,3.98-5.1,8.69-5.47,14.13h23.23v45.12ZM108.52,92.93h-48.58v-37.41c0-13.77,2.87-24.64,8.6-32.61,5.73-7.97,15.56-15,29.48-21.11l10.5,19.88c-8.56,4.02-14.48,8.02-17.76,12.01-3.28,3.98-5.1,8.69-5.47,14.13h23.23v45.12Z"/>
    <path class="cls-1"
          d="M405.2,418.64h48.58v37.41c0,13.78-2.87,24.67-8.6,32.67-5.73,8-15.52,15.02-29.37,21.05l-10.61-19.88c8.64-4.02,14.57-8.02,17.81-12.01,3.24-3.98,5.04-8.69,5.42-14.13h-23.23v-45.12ZM461.82,418.64h48.58v37.41c0,13.78-2.87,24.67-8.6,32.67-5.73,8-15.52,15.02-29.37,21.05l-10.61-19.88c8.64-4.02,14.58-8.02,17.81-12.01,3.24-3.98,5.04-8.69,5.42-14.13h-23.23v-45.12Z"/>
    <path class="cls-3"
          d="M245.54,233.85v81.3h80.77v36.79c-15.82,9.42-29.85,16.08-42.12,19.99-12.26,3.91-25.15,5.86-38.65,5.86-28.43,0-50.6-9.06-66.51-27.19-12.95-14.76-20.63-37.53-23.03-68.31-14.39,7.66-28.8,15.29-43.25,22.85-20.27,11.08-40.66,21.93-61.05,32.78-1.77.94-3.54,1.88-5.32,2.82,3.3,9.8,7.25,19.22,11.89,28.25,16.08,31.28,38.74,54.82,67.97,70.64,29.23,15.82,67.04,23.72,113.42,23.72,37.67,0,70.24-4.4,97.69-13.19,27.46-8.8,59.04-25.37,94.76-49.71v-166.6h-186.59Z"/>
</svg>